<?xml version="1.0" standalone="no"?>
<!DOCTYPE svg PUBLIC "-//W3C//DTD SVG 20010904//EN"
 "http://www.w3.org/TR/2001/REC-SVG-20010904/DTD/svg10.dtd">
<svg version="1.0" xmlns="http://www.w3.org/2000/svg"
 width="1200.000000pt" height="1200.000000pt" viewBox="0 0 1200.000000 1200.000000"
 preserveAspectRatio="xMidYMid meet">
<metadata>
Created by potrace 1.11, written by Peter Selinger 2001-2013
</metadata>
<g transform="translate(0.000000,1200.000000) scale(0.100000,-0.100000)"
fill="#000000" stroke="none">
<path d="M3454 10831 c-49 -21 -51 -35 -49 -294 2 -237 6 -272 38 -334 69
-132 304 -151 425 -34 l32 31 0 -30 c0 -41 39 -80 79 -80 46 0 80 17 91 46 12
31 16 592 5 642 -13 60 -100 82 -152 38 l-28 -24 -2 -213 c-2 -200 -3 -214
-25 -257 -40 -77 -155 -113 -222 -68 -50 32 -56 64 -56 308 0 198 -2 226 -18
246 -20 26 -83 38 -118 23z"/>
<path d="M4336 10817 c-22 -22 -26 -35 -26 -84 -3 -375 0 -585 10 -603 24 -44
104 -53 146 -16 l28 23 1 209 c2 223 9 264 56 307 45 42 140 53 197 24 50 -25
56 -54 58 -298 1 -150 6 -234 14 -248 24 -45 103 -54 146 -17 l28 23 1 224 c0
123 -3 246 -8 273 -25 142 -112 207 -271 203 -79 -3 -138 -26 -193 -80 l-33
-31 0 31 c0 47 -28 74 -82 80 -40 5 -50 2 -72 -20z"/>
<path d="M8883 10540 c-58 -35 -57 -125 0 -160 55 -34 141 -18 167 29 13 25
13 77 0 102 -26 48 -112 63 -167 29z"/>
<path d="M8903 10210 c-43 -18 -46 -38 -45 -349 0 -163 1 -306 1 -319 2 -64
103 -95 158 -48 l28 24 0 326 c0 317 -1 326 -21 346 -24 24 -88 35 -121 20z"/>
<path d="M9445 10210 c-44 -10 -110 -46 -139 -75 -75 -75 -81 -191 -13 -263
32 -35 87 -58 221 -92 125 -31 156 -48 156 -85 0 -91 -162 -108 -328 -33 -58
25 -93 21 -110 -15 -45 -93 74 -167 278 -173 123 -3 202 17 261 65 96 79 96
234 0 296 -20 13 -72 34 -116 46 -212 57 -215 59 -227 85 -17 36 0 76 41 95
47 22 126 16 194 -16 105 -47 105 -48 133 -20 55 55 12 130 -97 169 -57 21
-198 30 -254 16z"/>
<path d="M10063 10200 c-26 -15 -33 -27 -34 -52 -5 -230 1 -619 9 -635 26 -47
120 -54 158 -12 16 18 18 41 19 227 1 133 6 220 13 243 40 118 216 143 252 35
6 -21 12 -124 13 -261 l2 -227 28 -24 c44 -38 122 -28 146 20 6 12 12 107 13
236 3 195 5 218 23 250 27 45 76 73 130 74 103 1 123 -39 123 -249 1 -306 1
-301 20 -325 12 -15 33 -24 64 -27 42 -5 50 -2 76 24 l30 29 -2 245 c-2 152
-7 259 -14 285 -30 104 -100 156 -219 160 -97 4 -154 -17 -215 -79 -27 -27
-48 -42 -48 -35 0 24 -73 86 -119 103 -94 33 -218 8 -283 -57 l-38 -38 0 30
c0 69 -80 101 -147 60z"/>
<path d="M413 9931 c-55 -34 -55 -53 7 -186 21 -44 80 -172 133 -285 52 -113
109 -234 125 -270 117 -255 131 -279 163 -295 39 -20 109 -13 133 14 27 30
446 934 446 963 0 32 -50 78 -85 78 -56 0 -75 -17 -117 -107 -22 -49 -52 -113
-66 -143 -14 -30 -26 -57 -26 -60 -3 -14 -219 -486 -227 -494 -6 -6 -9 -6 -9
1 0 6 -18 49 -39 95 -21 45 -90 198 -154 338 -63 140 -124 276 -136 301 -32
69 -87 87 -148 50z"/>
<path d="M2385 9925 c-14 -13 -25 -37 -26 -52 0 -15 -1 -231 -1 -480 -1 -505
-2 -496 67 -509 49 -9 82 2 102 33 16 24 18 67 18 501 l1 474 -27 29 c-36 39
-98 41 -134 4z"/>
<path d="M4620 9918 c-43 -12 -85 -41 -131 -90 -29 -32 -42 -59 -67 -151 -26
-90 -90 -362 -116 -487 -21 -102 -44 -190 -81 -310 -13 -43 -28 -141 -27 -175
1 -15 -1 -17 -8 -5 -8 14 -6 309 5 485 3 50 8 184 11 299 6 238 1 262 -63 306
-54 37 -86 48 -134 46 -152 -6 -300 -233 -315 -481 -4 -66 -7 -105 -18 -201
-2 -23 -7 -84 -10 -135 -4 -52 -9 -119 -11 -149 -3 -30 -7 -111 -10 -180 -3
-69 -8 -156 -10 -195 -3 -38 -7 -121 -10 -183 -6 -133 -14 -155 -76 -195 -33
-22 -54 -15 -102 36 -74 79 -167 309 -232 573 -25 104 -55 208 -65 232 -11 25
-20 51 -20 58 0 8 -4 14 -9 14 -5 0 -14 12 -19 28 -19 51 -115 136 -162 144
-24 3 -91 -12 -125 -29 -134 -69 -176 -282 -105 -543 7 -25 12 -46 11 -47 -2
-6 43 -121 70 -181 16 -35 29 -65 29 -67 0 -2 14 -34 31 -72 17 -37 37 -84 45
-103 9 -19 19 -44 24 -55 16 -34 69 -199 74 -230 3 -16 8 -46 11 -65 14 -80 6
-197 -20 -315 -28 -121 -76 -277 -93 -298 -5 -7 -12 -25 -16 -42 -15 -62 -98
-216 -137 -254 -44 -42 -71 -44 -108 -10 -49 46 -52 59 -56 241 -3 95 -7 191
-10 213 -2 22 -7 101 -10 175 -3 74 -13 218 -21 320 -8 102 -19 232 -24 290
-13 165 -71 308 -162 401 -102 104 -221 107 -317 7 -30 -30 -38 -47 -39 -81
-1 -23 4 -235 13 -472 17 -492 17 -529 5 -500 -5 11 -9 34 -9 51 -1 17 -10 64
-21 105 -12 41 -23 85 -26 98 -3 14 -7 28 -10 33 -3 5 -7 20 -10 34 -3 14 -12
56 -20 92 -13 55 -66 302 -79 367 -17 79 -79 284 -95 309 -20 33 -93 99 -106
96 -3 -1 -10 4 -14 10 -19 31 -172 23 -209 -11 -11 -11 -21 -17 -21 -13 0 4
-11 -3 -25 -16 -13 -12 -22 -26 -20 -30 3 -5 -1 -10 -9 -13 -21 -8 -46 -94
-46 -156 0 -30 9 -80 20 -110 33 -95 131 -690 129 -786 0 -11 5 -60 10 -110
18 -165 21 -222 10 -196 -5 14 -11 32 -13 40 -3 18 -13 44 -31 86 -8 17 -17
44 -21 60 -4 17 -10 35 -14 40 -4 6 -17 60 -29 120 -12 61 -23 121 -26 135 -3
14 -8 41 -11 60 -9 52 -46 172 -60 195 -7 11 -14 25 -15 30 -2 16 -51 85 -84
117 -51 52 -85 68 -145 68 -105 0 -150 -27 -191 -115 -26 -55 -25 -214 1 -387
11 -73 25 -169 30 -212 5 -44 16 -102 24 -130 15 -52 68 -359 64 -373 -1 -5 2
-31 6 -60 16 -111 22 -424 11 -658 -15 -345 -16 -352 -50 -411 -20 -34 -33
-44 -78 -58 -30 -9 -65 -15 -78 -12 -74 14 -114 26 -117 35 -2 6 -10 11 -17
11 -15 0 -158 106 -163 120 -2 6 -9 10 -15 10 -6 0 -18 6 -26 14 -20 17 -136
63 -176 70 -108 18 -165 26 -197 26 l-38 0 0 -243 c0 -277 -9 -249 101 -305
35 -17 80 -46 99 -62 56 -49 178 -162 278 -260 91 -88 192 -170 210 -170 5 0
15 -7 22 -15 6 -8 15 -14 18 -13 4 1 38 -13 76 -30 38 -18 75 -32 82 -32 8 0
14 -4 14 -8 0 -4 21 -13 47 -20 62 -17 259 -114 298 -148 28 -24 30 -30 34
-122 8 -189 -3 -1145 -14 -1162 -3 -5 -8 -106 -10 -225 -3 -119 -7 -221 -10
-226 -4 -5 -6 -36 -6 -69 -1 -38 -6 -65 -15 -74 -8 -8 -14 -18 -14 -23 0 -5
-12 -20 -28 -33 -15 -14 -35 -38 -45 -53 -20 -32 -43 -61 -69 -89 -10 -10 -18
-22 -18 -28 0 -5 -4 -10 -9 -10 -5 0 -12 -8 -15 -18 -3 -9 -20 -33 -36 -52
-38 -44 -42 -49 -59 -82 -8 -16 -18 -28 -23 -28 -4 0 -8 -7 -8 -15 0 -8 -4
-15 -10 -15 -5 0 -10 -7 -10 -15 0 -8 -8 -23 -17 -33 -22 -23 -40 -50 -53 -79
-5 -13 -14 -23 -20 -23 -5 0 -10 -8 -10 -17 0 -10 -11 -30 -24 -46 -13 -15
-29 -41 -36 -57 -7 -17 -16 -30 -21 -30 -5 0 -9 -8 -9 -19 0 -10 -7 -24 -15
-31 -8 -7 -15 -16 -15 -20 0 -9 -64 -119 -80 -137 -5 -7 -10 -21 -10 -32 0
-11 -4 -22 -9 -25 -10 -6 -51 -87 -51 -100 0 -4 -7 -14 -15 -22 -8 -9 -15 -24
-15 -33 0 -10 -7 -24 -15 -31 -8 -7 -15 -20 -15 -29 0 -10 -13 -43 -29 -74
-16 -31 -31 -67 -35 -81 -3 -14 -11 -26 -16 -26 -6 0 -10 -9 -10 -20 0 -19
-17 -66 -46 -123 -8 -16 -14 -39 -14 -52 0 -13 -5 -25 -11 -27 -5 -2 -13 -22
-16 -46 l-6 -42 5717 0 c5074 0 5716 2 5716 15 0 8 -4 15 -10 15 -5 0 -13 18
-16 40 -4 22 -10 40 -14 40 -5 0 -12 14 -15 32 -4 18 -21 61 -37 97 -16 36
-33 75 -37 86 -5 11 -45 94 -90 185 -44 91 -81 170 -81 177 0 6 -3 13 -7 15
-5 2 -26 39 -48 83 -22 44 -42 82 -46 85 -4 3 -14 21 -23 40 -9 19 -29 58 -45
85 -17 28 -39 67 -50 87 -34 63 -45 81 -78 130 -18 26 -33 52 -33 58 0 5 -4
10 -10 10 -5 0 -10 6 -10 13 0 7 -8 22 -18 33 -10 10 -27 34 -38 53 -10 19
-26 42 -34 51 -8 9 -24 30 -35 46 -34 48 -108 139 -117 142 -4 2 -8 8 -8 12 0
5 -19 29 -42 53 -71 74 -172 183 -193 208 -16 19 -20 41 -21 104 -19 867 -23
1730 -10 2005 4 96 8 181 9 188 0 6 6 12 14 12 7 0 13 4 13 9 0 16 149 99 240
133 30 11 59 24 65 29 5 5 15 9 22 9 25 0 259 95 273 111 3 3 23 16 45 29 22
13 52 36 66 50 14 14 47 43 72 64 26 21 68 59 94 83 124 114 290 233 327 233
8 0 17 4 20 9 9 15 113 39 174 40 l32 1 0 219 c0 255 17 227 -146 237 -219 14
-368 -30 -539 -160 -106 -81 -209 -108 -304 -80 -84 25 -108 75 -124 258 -18
210 -13 777 8 913 3 18 8 57 11 85 3 29 17 107 30 173 31 154 34 167 40 185 3
8 7 39 10 70 2 30 7 66 9 80 3 14 8 44 11 66 2 23 7 53 10 65 16 75 23 251 12
309 -8 46 -38 103 -65 126 -39 33 -70 42 -141 39 -66 -3 -106 -24 -164 -90
-61 -67 -119 -212 -143 -355 -27 -166 -56 -281 -84 -343 -11 -23 -29 -71 -41
-107 -27 -80 -31 -84 -25 -29 12 120 16 169 20 219 3 30 7 75 10 100 3 25 8
68 11 95 3 28 7 62 10 76 2 15 6 47 9 70 3 24 7 55 10 69 3 14 7 43 10 64 12
99 58 326 75 374 12 30 20 78 20 111 0 114 -43 187 -139 233 -129 62 -287 -18
-334 -170 -18 -57 -72 -266 -81 -312 -3 -14 -15 -68 -27 -120 -12 -52 -23
-104 -24 -115 -7 -46 -48 -205 -71 -280 -23 -73 -30 -114 -33 -190 -1 -23 -4
-27 -11 -15 -9 14 -8 137 5 516 3 83 5 230 6 328 0 164 -2 177 -21 198 -11 12
-20 24 -20 27 0 3 -21 19 -46 35 -66 42 -164 38 -222 -9 -30 -24 -72 -67 -72
-73 0 -4 -10 -18 -23 -32 -59 -64 -97 -193 -109 -365 -5 -77 -11 -158 -12
-180 -2 -22 -7 -71 -10 -110 -6 -68 -13 -187 -21 -350 -2 -44 -7 -143 -10
-220 -4 -77 -8 -169 -9 -206 -1 -50 -7 -73 -25 -97 -21 -31 -68 -62 -91 -62
-9 0 -63 52 -98 94 -13 16 -74 146 -140 296 -12 28 -48 151 -56 190 -29 155
-82 312 -122 367 -13 17 -24 34 -24 38 0 9 -63 70 -92 89 -70 46 -203 -2 -262
-95 -95 -149 -46 -474 119 -793 l35 -69 -30 -31 c-61 -63 -90 -100 -90 -113 0
-7 -5 -13 -12 -13 -6 0 -8 -3 -5 -7 4 -3 3 -11 -2 -17 -18 -21 -64 -161 -77
-231 -2 -11 -12 -53 -23 -92 -10 -40 -17 -73 -16 -73 2 0 -10 -35 -25 -77 -87
-243 -125 -323 -181 -387 -55 -62 -91 -63 -143 -6 -29 32 -36 48 -37 83 0 23
-2 69 -4 102 -2 33 -6 125 -10 205 -4 80 -8 165 -10 190 -2 25 -6 99 -10 165
-4 66 -8 138 -11 160 -2 22 -6 60 -8 85 -2 25 -8 81 -12 125 -4 44 -7 84 -5
90 4 15 -19 136 -35 183 -58 175 -181 302 -292 302 -61 0 -151 -58 -179 -115
-9 -20 -9 -113 1 -385 12 -307 18 -675 12 -669 -4 4 -9 28 -12 55 -8 67 -26
148 -62 284 -25 91 -66 271 -126 545 -6 24 -29 105 -49 170 -30 97 -79 153
-162 184 -122 46 -249 -14 -297 -141 -24 -65 -23 -116 6 -201 35 -101 90 -427
122 -712 3 -33 8 -63 11 -67 8 -14 -6 -8 -55 22 l-49 30 -22 115 c-21 111 -39
180 -63 235 -60 140 -157 230 -247 230 -111 0 -170 -43 -200 -145 -8 -29 -7
-209 2 -282 7 -57 6 -63 -10 -64 -105 -3 -213 -32 -285 -75 -24 -13 -51 -27
-60 -31 -10 -3 -18 -9 -18 -13 0 -12 -71 -54 -140 -83 -111 -47 -218 -39 -270
20 -53 59 -50 45 -67 388 -10 220 -4 572 12 665 2 14 6 48 9 75 7 66 15 124
22 155 3 14 8 41 10 60 3 19 16 82 30 140 14 58 27 128 29 155 3 28 7 61 9 75
3 14 8 43 11 65 9 62 13 87 20 125 4 19 8 79 10 132 3 102 -18 191 -53 232
-31 35 -92 55 -159 52 -76 -4 -112 -28 -193 -124 -32 -38 -90 -185 -104 -267
-3 -16 -8 -41 -11 -55 -3 -14 -8 -38 -10 -55 -3 -16 -8 -37 -10 -45 -2 -8 -7
-31 -10 -50 -10 -61 -25 -112 -67 -225 -56 -155 -59 -159 -53 -95 3 30 7 80
10 110 3 30 8 80 11 110 3 30 7 71 9 91 3 34 12 115 20 169 2 14 9 61 15 106
6 44 13 91 15 104 3 13 7 42 11 65 14 97 46 246 68 313 43 136 7 260 -94 323
-48 30 -125 42 -180 27z m2132 -3068 c4 -47 -6 -52 -20 -11 -7 20 -7 32 1 40
15 15 14 16 19 -29z m-558 -77 c7 -24 34 -237 43 -348 10 -110 9 -588 -1 -740
-10 -153 -22 -200 -61 -239 -41 -42 -85 -54 -161 -44 -76 9 -151 43 -229 103
-51 40 -106 76 -125 80 -3 1 -21 9 -41 18 -95 42 -300 64 -424 44 -66 -10
-146 -26 -189 -38 -23 -6 -48 -13 -56 -14 -8 -2 -15 -4 -15 -5 0 -1 -11 -4
-25 -6 -26 -4 -26 -4 -23 63 5 128 13 298 16 320 2 21 101 123 119 123 4 0 33
16 65 35 32 19 64 35 71 35 7 0 20 6 27 14 8 7 31 17 52 21 21 4 45 12 53 19
8 7 59 29 113 50 53 21 97 42 97 47 0 5 7 9 15 9 8 0 15 3 15 8 0 4 17 16 37
27 37 20 59 36 113 85 15 14 54 48 86 75 32 28 66 58 75 67 50 47 172 132 229
158 36 17 72 35 80 40 23 14 38 12 44 -7z m2452 -190 c1 -63 13 -253 19 -284
2 -13 6 -42 9 -64 17 -136 67 -327 112 -432 8 -17 14 -34 14 -37 0 -3 18 -43
41 -88 111 -228 181 -404 215 -544 23 -96 28 -321 9 -399 -8 -33 -22 -151 -32
-261 l-17 -202 -61 32 c-33 17 -66 37 -73 43 -7 7 -20 13 -28 13 -9 0 -22 7
-30 15 -9 8 -24 15 -33 15 -10 0 -24 7 -31 15 -7 8 -21 15 -31 15 -9 0 -24 6
-31 13 -7 8 -26 17 -41 21 -15 3 -27 11 -27 16 0 6 -9 10 -20 10 -11 0 -45 13
-75 29 -30 16 -68 32 -85 36 -16 4 -30 11 -30 16 0 5 -10 9 -23 9 -12 0 -31 6
-42 14 -11 7 -35 17 -52 21 -18 3 -33 11 -33 16 0 5 -9 9 -20 9 -24 0 -23 19
4 70 100 192 156 346 180 500 3 19 10 62 16 95 21 126 29 377 21 735 -1 52 1
113 4 135 15 97 62 245 117 365 14 30 28 65 32 78 12 36 21 25 22 -25z m-5367
-442 c113 -288 154 -475 155 -711 0 -80 -5 -170 -12 -200 -10 -48 -20 -163
-37 -415 -14 -218 -19 -285 -24 -327 -1 -5 -12 -8 -25 -8 -13 0 -26 -7 -30
-15 -3 -8 -14 -15 -25 -15 -11 0 -26 -7 -35 -15 -8 -8 -21 -15 -28 -15 -7 -1
-31 -12 -53 -25 -22 -14 -47 -28 -55 -31 -43 -17 -100 -46 -105 -55 -4 -5 -15
-9 -26 -9 -10 0 -19 -4 -19 -9 0 -5 -16 -15 -35 -21 -19 -6 -35 -16 -35 -21 0
-5 -9 -9 -19 -9 -11 0 -21 -4 -23 -8 -1 -4 -19 -18 -39 -30 l-35 -21 -12 47
c-20 78 -24 153 -13 222 6 36 13 79 16 97 6 35 58 189 82 243 42 92 125 268
138 291 50 90 146 367 161 462 3 17 7 43 9 57 2 14 7 41 10 60 18 101 26 216
30 450 2 107 5 202 5 210 2 18 1 19 79 -179z m1715 -949 c139 4 244 1 263 -7
10 -5 20 -9 23 -9 49 -9 156 -68 236 -128 l32 -24 -111 -2 c-61 -2 -118 -7
-127 -12 -8 -4 -65 -12 -125 -15 -61 -4 -117 -11 -125 -15 -8 -5 -49 -11 -90
-15 -41 -4 -78 -8 -81 -11 -3 -2 -6 53 -6 122 0 108 3 124 16 119 8 -3 51 -5
95 -3z"/>
<path d="M1683 9615 c-123 -34 -216 -132 -244 -252 -48 -215 46 -402 233 -465
68 -23 216 -18 289 10 100 40 178 133 204 247 11 48 12 143 1 195 -23 120
-106 218 -218 257 -62 22 -201 26 -265 8z m206 -150 c116 -59 134 -306 29
-402 -64 -59 -202 -47 -257 23 -42 53 -57 183 -32 272 14 50 68 108 114 120
43 12 110 6 146 -13z"/>
<path d="M5853 9352 c-45 -7 -63 -47 -63 -138 l0 -84 -51 0 c-76 0 -109 -22
-109 -71 0 -48 29 -71 93 -73 31 -1 59 -4 61 -7 3 -3 6 -92 6 -198 1 -138 6
-204 16 -234 34 -101 130 -155 274 -155 49 0 67 5 87 22 53 46 19 116 -57 116
-53 0 -96 18 -116 47 -14 22 -17 55 -18 197 -2 233 -8 215 75 212 92 -3 124
11 134 60 6 34 4 41 -20 61 -22 20 -37 23 -106 23 -43 0 -79 3 -80 8 -1 4 -2
44 -3 89 -2 73 -4 84 -25 102 -13 12 -29 21 -35 22 -6 0 -18 2 -26 3 -8 1 -25
0 -37 -2z"/>
<path d="M6534 9125 c-114 -35 -188 -110 -225 -225 -23 -73 -27 -185 -8 -253
46 -171 200 -269 398 -254 180 14 295 92 258 175 -17 37 -50 37 -136 3 -170
-69 -299 -33 -336 93 -8 27 -15 53 -15 58 0 4 105 8 234 8 200 0 237 2 250 16
20 19 21 90 2 161 -39 145 -145 226 -301 229 -44 1 -99 -4 -121 -11z m197
-137 c41 -23 65 -62 74 -122 l6 -36 -170 0 -170 0 5 27 c8 40 32 88 58 112 47
44 137 53 197 19z"/>
<path d="M7332 9115 c-160 -59 -241 -209 -220 -408 20 -202 170 -321 392 -313
185 7 312 88 273 173 -17 37 -48 38 -137 4 -98 -38 -144 -44 -211 -27 -76 20
-121 71 -132 149 l-5 37 233 0 c280 0 270 -4 262 106 -9 125 -77 230 -177 276
-70 32 -197 34 -278 3z m214 -125 c45 -22 67 -56 79 -122 l7 -38 -172 0 -172
0 6 23 c33 135 138 192 252 137z"/>
<path d="M8023 9130 c-43 -18 -46 -37 -46 -367 0 -350 2 -356 68 -369 49 -9
82 2 102 33 16 23 18 54 19 223 1 165 4 201 19 229 34 66 69 88 155 98 66 7
109 22 120 43 16 31 12 78 -10 100 -27 27 -111 27 -173 0 -42 -19 -107 -79
-107 -100 0 -6 -4 -10 -9 -10 -6 0 -8 9 -6 20 2 10 -1 35 -6 55 -14 49 -67 68
-126 45z"/>
</g>
</svg>
